<svg width="47" height="48" viewBox="0 0 47 48" fill="none" xmlns="http://www.w3.org/2000/svg">
<rect width="47" height="48" fill="black"/>
<path d="M17.8523 29.125V37H15.8409V23.9091H17.7841V25.9545H17.9545C18.2614 25.2898 18.7273 24.7557 19.3523 24.3523C19.9773 23.9432 20.7841 23.7386 21.7727 23.7386C22.6591 23.7386 23.4347 23.9205 24.0994 24.2841C24.7642 24.642 25.2813 25.1875 25.6506 25.9205C26.0199 26.6477 26.2045 27.5682 26.2045 28.6818V37H24.1932V28.8182C24.1932 27.7898 23.9261 26.9886 23.392 26.4148C22.858 25.8352 22.125 25.5455 21.1932 25.5455C20.5511 25.5455 19.9773 25.6847 19.4716 25.9631C18.9716 26.2415 18.5767 26.6477 18.2869 27.1818C17.9972 27.7159 17.8523 28.3636 17.8523 29.125ZM35.6413 37.2386C34.9254 37.2273 34.2095 37.0909 33.4936 36.8295C32.7777 36.5682 32.1243 36.1278 31.5334 35.5085C30.9425 34.8835 30.468 34.0398 30.1101 32.9773C29.7521 31.9091 29.5732 30.5682 29.5732 28.9545C29.5732 27.4091 29.718 26.0398 30.0078 24.8466C30.2976 23.6477 30.718 22.6392 31.2692 21.821C31.8203 20.9972 32.4851 20.3722 33.2635 19.946C34.0476 19.5199 34.9311 19.3068 35.9141 19.3068C36.8913 19.3068 37.7607 19.5028 38.522 19.8949C39.2891 20.2812 39.9141 20.821 40.397 21.5142C40.88 22.2074 41.1925 23.0057 41.3345 23.9091H39.255C39.0618 23.125 38.6868 22.4744 38.13 21.9574C37.5732 21.4403 36.8345 21.1818 35.9141 21.1818C34.5618 21.1818 33.4964 21.7699 32.718 22.946C31.9453 24.1222 31.5561 25.7727 31.5504 27.8977H31.6868C32.005 27.4148 32.3828 27.0028 32.8203 26.6619C33.2635 26.3153 33.7521 26.0483 34.2862 25.8608C34.8203 25.6733 35.3857 25.5795 35.9822 25.5795C36.9822 25.5795 37.897 25.8295 38.7266 26.3295C39.5561 26.8239 40.2209 27.5085 40.7209 28.3835C41.2209 29.2528 41.4709 30.25 41.4709 31.375C41.4709 32.4545 41.2294 33.4432 40.7464 34.3409C40.2635 35.233 39.5845 35.9432 38.7095 36.4716C37.8402 36.9943 36.8175 37.25 35.6413 37.2386ZM35.6413 35.3636C36.3572 35.3636 36.9993 35.1847 37.5675 34.8267C38.1413 34.4687 38.593 33.9886 38.9226 33.3864C39.2578 32.7841 39.4254 32.1136 39.4254 31.375C39.4254 30.6534 39.2635 29.9972 38.9396 29.4062C38.6214 28.8097 38.1811 28.3352 37.6186 27.983C37.0618 27.6307 36.4254 27.4545 35.7095 27.4545C35.1697 27.4545 34.6669 27.5625 34.201 27.7784C33.7351 27.9886 33.326 28.2784 32.9737 28.6477C32.6271 29.017 32.3544 29.4403 32.1555 29.9176C31.9567 30.3892 31.8572 30.8864 31.8572 31.4091C31.8572 32.1023 32.0192 32.75 32.343 33.3523C32.6726 33.9545 33.1214 34.4403 33.6896 34.8097C34.2635 35.179 34.9141 35.3636 35.6413 35.3636Z" fill="white"/>
</svg>
